<svg version="1.1" id="Layer_1" xmlns="http://www.w3.org/2000/svg" xmlns:xlink="http://www.w3.org/1999/xlink" x="0px" y="0px"
	 width="100%" viewBox="0 0 180 180" enable-background="new 0 0 180 180" xml:space="preserve">
<path fill="#02205B" opacity="1.000000" stroke="none" 
	d="
M0.999998,170.000000 
	C1.000000,117.645775 1.000000,65.291542 1.347301,12.463400 
	C5.129735,8.326323 8.564868,4.663161 12.000000,1.000000 
	C64.354225,1.000000 116.708458,1.000000 169.521545,1.350881 
	C173.653625,5.467839 177.326813,9.233917 181.000000,12.999997 
	C181.000000,65.020897 181.000000,117.041786 180.650177,169.537079 
	C176.866913,173.674332 173.433456,177.337158 170.000000,181.000000 
	C117.645775,181.000000 65.291542,181.000000 12.461970,180.650406 
	C8.324415,176.867218 4.662205,173.433609 0.999998,170.000000 
M63.018677,63.203930 
	C62.337986,54.274254 57.380348,49.221169 48.469330,48.909435 
	C40.658627,48.636200 32.825176,48.978569 25.017757,48.658760 
	C20.139648,48.458946 18.820469,50.351357 18.867399,55.077831 
	C19.087095,77.204300 18.970694,99.334167 18.963814,121.462822 
	C18.959959,133.864151 17.712811,133.059647 30.449778,133.002945 
	C36.402401,132.976456 36.972473,132.408752 36.988262,126.365219 
	C37.005863,119.629173 36.992294,112.893044 36.992294,106.211464 
	C57.726833,105.494911 60.148399,104.236145 63.624325,92.296021 
	C63.472279,82.866966 63.320236,73.437912 63.018677,63.203930 
M68.374001,62.703491 
	C68.275429,81.531425 68.169632,100.359329 68.111382,119.187386 
	C68.109543,119.782860 68.597298,120.379845 69.126343,121.649872 
	C72.757294,130.371628 76.713348,133.003738 86.210434,133.011963 
	C89.875168,133.015137 93.540184,133.042130 97.204590,133.007492 
	C107.111343,132.913834 112.974472,127.053757 113.007408,117.241135 
	C113.016914,114.409325 113.013680,111.577454 113.011543,108.745613 
	C113.006401,101.916496 113.005272,101.916496 106.051399,101.885040 
	C96.403221,101.841393 96.331696,101.837944 95.863235,111.546883 
	C95.745850,113.979752 95.177406,115.362381 92.451515,115.151352 
	C90.717155,115.017082 88.963951,115.126236 87.368256,115.126236 
	C87.368256,98.500816 87.368256,82.608009 87.368256,66.779831 
	C95.444870,65.445251 95.736305,65.677025 95.816833,73.139153 
	C95.825813,73.971443 95.539543,75.008377 95.927246,75.596176 
	C96.962776,77.166176 98.429893,79.875359 99.478523,79.765892 
	C103.966690,79.297386 109.249451,82.474922 112.841705,77.424118 
	C113.246910,76.854370 113.003891,75.800606 113.006126,74.971138 
	C113.017365,70.806694 113.107475,66.639404 112.987671,62.478363 
	C112.786369,55.486176 107.228828,49.503498 100.205566,49.030865 
	C95.064461,48.684895 89.882797,48.684662 84.728813,48.842937 
	C75.364151,49.130520 71.069916,52.798023 68.374001,62.703491 
M118.366142,63.702408 
	C118.517830,72.133919 118.669525,80.565430 118.965782,89.738945 
	C120.501022,91.472565 121.719505,93.843933 123.641632,94.798576 
	C126.986336,96.459770 130.774551,97.218582 134.360352,98.405464 
	C145.414413,102.064293 145.414459,102.073563 144.909515,113.937447 
	C144.897476,114.220230 144.609146,114.491257 144.442215,114.780701 
	C142.038422,114.780701 139.644333,114.780701 137.022583,114.780701 
	C137.022583,112.304192 137.444931,110.047012 136.907318,108.047989 
	C136.335785,105.922813 134.893509,102.371826 133.763641,102.345421 
	C128.983734,102.233711 124.173416,103.167435 119.397270,103.874687 
	C119.148895,103.911461 119.044739,105.379326 118.990059,106.188805 
	C118.736977,109.935173 118.371315,113.682716 118.331703,117.432854 
	C118.257393,124.467178 122.825768,131.011993 129.997955,132.070419 
	C136.955154,133.097122 144.269653,133.292389 151.221863,132.345306 
	C159.217499,131.256073 162.964966,125.725685 163.033020,117.614616 
	C163.098694,109.786629 162.907959,101.953934 163.113663,94.130768 
	C163.214432,90.297653 161.388382,88.201012 158.102005,87.093163 
	C153.590881,85.572456 149.002243,84.283012 144.479004,82.796608 
	C137.007248,80.341286 137.018082,80.308327 137.022293,72.432358 
	C137.025955,65.586296 137.479324,65.252739 144.989029,67.045433 
	C144.989029,69.545280 145.089188,72.173462 144.963013,74.790726 
	C144.814056,77.880417 146.356277,80.023712 149.208878,79.682396 
	C153.824997,79.130066 159.335587,82.420906 162.914062,76.960388 
	C163.304184,76.365089 163.047592,75.329826 163.048721,74.498581 
	C163.053711,70.834198 163.098526,67.168709 163.027145,63.505604 
	C162.865585,55.215515 157.409500,49.368576 149.209717,48.954483 
	C144.227066,48.702862 139.218079,48.680626 134.231674,48.857998 
	C124.928749,49.188915 120.137115,53.694263 118.366142,63.702408 
z"/>
<path fill="#000000" opacity="1.000000" stroke="none" 
	d="
M181.000000,12.520822 
	C177.326813,9.233917 173.653625,5.467839 169.990204,1.350881 
	C173.591980,1.000000 177.183945,1.000000 181.000000,1.000000 
	C181.000000,4.678767 181.000000,8.360208 181.000000,12.520822 
z"/>
<path fill="#000000" opacity="1.000000" stroke="none" 
	d="
M11.517044,1.000000 
	C8.564868,4.663161 5.129735,8.326323 1.347301,11.994741 
	C1.000000,8.412791 1.000000,4.825583 1.000000,1.000000 
	C4.342551,1.000000 7.688319,1.000000 11.517044,1.000000 
z"/>
<path fill="#000000" opacity="1.000000" stroke="none" 
	d="
M170.482956,181.000000 
	C173.433456,177.337158 176.866913,173.674332 180.650177,170.005737 
	C181.000000,173.587204 181.000000,177.174423 181.000000,181.000000 
	C177.657455,181.000000 174.311676,181.000000 170.482956,181.000000 
z"/>
<path fill="#000000" opacity="1.000000" stroke="none" 
	d="
M0.999998,170.482956 
	C4.662205,173.433609 8.324415,176.867218 11.993313,180.650406 
	C8.412791,181.000000 4.825583,181.000000 1.000000,181.000000 
	C1.000000,177.657455 1.000000,174.311676 0.999998,170.482956 
z"/>
<path fill="#F5F1F3" opacity="1.000000" stroke="none" 
	d="
M118.813156,63.011974 
	C120.137115,53.694263 124.928749,49.188915 134.231674,48.857998 
	C139.218079,48.680626 144.227066,48.702862 149.209717,48.954483 
	C157.409500,49.368576 162.865585,55.215515 163.027145,63.505604 
	C163.098526,67.168709 163.053711,70.834198 163.048721,74.498581 
	C163.047592,75.329826 163.304184,76.365089 162.914062,76.960388 
	C159.335587,82.420906 153.824997,79.130066 149.208878,79.682396 
	C146.356277,80.023712 144.814056,77.880417 144.963013,74.790726 
	C145.089188,72.173462 144.989029,69.545280 144.989029,67.045433 
	C137.479324,65.252739 137.025955,65.586296 137.022293,72.432358 
	C137.018082,80.308327 137.007248,80.341286 144.479004,82.796608 
	C149.002243,84.283012 153.590881,85.572456 158.102005,87.093163 
	C161.388382,88.201012 163.214432,90.297653 163.113663,94.130768 
	C162.907959,101.953934 163.098694,109.786629 163.033020,117.614616 
	C162.964966,125.725685 159.217499,131.256073 151.221863,132.345306 
	C144.269653,133.292389 136.955154,133.097122 129.997955,132.070419 
	C122.825768,131.011993 118.257393,124.467178 118.331703,117.432854 
	C118.371315,113.682716 118.736977,109.935173 118.990059,106.188805 
	C119.044739,105.379326 119.148895,103.911461 119.397270,103.874687 
	C124.173416,103.167435 128.983734,102.233711 133.763641,102.345421 
	C134.893509,102.371826 136.335785,105.922813 136.907318,108.047989 
	C137.444931,110.047012 137.022583,112.304192 137.022583,114.780701 
	C139.644333,114.780701 142.038422,114.780701 144.442215,114.780701 
	C144.609146,114.491257 144.897476,114.220230 144.909515,113.937447 
	C145.414459,102.073563 145.414413,102.064293 134.360352,98.405464 
	C130.774551,97.218582 126.986336,96.459770 123.641632,94.798576 
	C121.719505,93.843933 120.501022,91.472565 118.964294,88.903519 
	C118.912918,79.716057 118.863037,71.364014 118.813156,63.011974 
M160.977737,70.499695 
	C160.977005,68.666565 161.023071,66.832016 160.967667,65.000542 
	C160.684662,55.645081 155.985077,51.067352 146.621185,51.016266 
	C142.621658,50.994446 138.621490,50.972534 134.622375,51.017704 
	C126.108360,51.113873 121.097023,56.127647 121.029556,64.679108 
	C120.971703,72.011337 121.174286,79.349243 120.948364,86.674965 
	C120.839310,90.211029 121.819702,92.207756 125.473732,93.108650 
	C129.295761,94.050964 132.947021,95.671677 136.696243,96.926155 
	C147.513535,100.545586 147.337158,100.531570 147.322754,111.944107 
	C147.316666,116.788162 145.003906,117.869492 140.830078,117.839760 
	C136.844406,117.811378 134.561066,116.733749 134.690521,112.149208 
	C134.953217,102.844933 135.260941,104.130997 126.246078,104.037582 
	C125.412964,104.028954 124.379494,103.730392 123.790161,104.110626 
	C122.727943,104.795967 121.215096,105.844925 121.148758,106.826996 
	C120.868698,110.972778 120.730598,115.182098 121.142990,119.307968 
	C121.751022,125.391129 124.838097,129.145020 131.068314,130.008453 
	C137.248749,130.864960 143.698380,131.118729 149.870575,130.352676 
	C157.436554,129.413605 160.823776,124.649040 160.952179,116.791084 
	C161.066513,109.793556 160.781219,102.785110 161.052551,95.796242 
	C161.210938,91.716232 159.637146,89.867844 155.751572,88.814018 
	C149.877090,87.220779 144.112686,85.159698 138.429092,82.966789 
	C136.958633,82.399429 134.902008,80.571289 134.935104,79.372559 
	C135.071915,74.417267 134.296890,68.250740 136.894852,64.850182 
	C140.130142,60.615421 147.152878,64.610008 147.236694,70.184662 
	C147.259247,71.684212 146.962585,73.264435 147.350937,74.657516 
	C147.638412,75.688721 148.744324,77.187172 149.578964,77.250664 
	C153.288498,77.532898 157.031662,77.373047 160.977768,77.373047 
	C160.977768,74.753624 160.977768,73.104721 160.977737,70.499695 
z"/>
<path fill="#F9F5F6" opacity="1.000000" stroke="none" 
	d="
M68.825577,62.017002 
	C71.069916,52.798023 75.364151,49.130520 84.728813,48.842937 
	C89.882797,48.684662 95.064461,48.684895 100.205566,49.030865 
	C107.228828,49.503498 112.786369,55.486176 112.987671,62.478363 
	C113.107475,66.639404 113.017365,70.806694 113.006126,74.971138 
	C113.003891,75.800606 113.246910,76.854370 112.841705,77.424118 
	C109.249451,82.474922 103.966690,79.297386 99.478523,79.765892 
	C98.429893,79.875359 96.962776,77.166176 95.927246,75.596176 
	C95.539543,75.008377 95.825813,73.971443 95.816833,73.139153 
	C95.736305,65.677025 95.444870,65.445251 87.368256,66.779831 
	C87.368256,82.608009 87.368256,98.500816 87.368256,115.126236 
	C88.963951,115.126236 90.717155,115.017082 92.451515,115.151352 
	C95.177406,115.362381 95.745850,113.979752 95.863235,111.546883 
	C96.331696,101.837944 96.403221,101.841393 106.051399,101.885040 
	C113.005272,101.916496 113.006401,101.916496 113.011543,108.745613 
	C113.013680,111.577454 113.016914,114.409325 113.007408,117.241135 
	C112.974472,127.053757 107.111343,132.913834 97.204590,133.007492 
	C93.540184,133.042130 89.875168,133.015137 86.210434,133.011963 
	C76.713348,133.003738 72.757294,130.371628 69.053558,120.849953 
	C68.929039,100.705688 68.877304,81.361343 68.825577,62.017002 
M84.790092,104.469513 
	C84.790024,92.812279 84.660225,81.152107 84.924171,69.500854 
	C84.965668,67.669189 86.674759,64.398109 87.811638,64.308243 
	C95.174095,63.726299 98.699074,62.757900 97.949379,72.056572 
	C97.601738,76.368500 98.546013,78.402390 103.552368,78.095284 
	C110.974571,77.639977 110.996407,77.993866 110.989777,70.415024 
	C110.987885,68.250099 111.071465,66.081009 110.967247,63.920998 
	C110.579308,55.880501 105.662636,51.120762 97.625465,51.014610 
	C93.129906,50.955235 88.631790,50.946472 84.136726,51.024529 
	C76.418747,51.158554 71.124268,56.059372 71.062363,63.643322 
	C70.914215,81.794182 70.917061,99.947853 71.065483,118.098709 
	C71.119019,124.644890 74.401955,129.098999 80.860512,129.918259 
	C87.503662,130.760925 94.359085,130.467331 101.077553,130.015625 
	C106.853340,129.627319 109.974976,125.393448 110.630318,120.098511 
	C111.270683,114.924667 110.769623,109.609566 110.769623,104.378044 
	C106.223198,104.378044 102.172478,104.378044 97.979836,104.378044 
	C97.979836,107.574028 98.298416,110.453125 97.852760,113.208618 
	C97.610100,114.708954 96.372856,116.700531 95.063988,117.265602 
	C88.751610,119.990814 84.818733,117.247490 84.792816,110.452522 
	C84.786469,108.787209 84.790718,107.121872 84.790092,104.469513 
z"/>
<path fill="#FBF9FA" opacity="1.000000" stroke="none" 
	d="
M63.169693,92.980087 
	C60.148399,104.236145 57.726833,105.494911 36.992294,106.211464 
	C36.992294,112.893044 37.005863,119.629173 36.988262,126.365219 
	C36.972473,132.408752 36.402401,132.976456 30.449778,133.002945 
	C17.712811,133.059647 18.959959,133.864151 18.963814,121.462822 
	C18.970694,99.334167 19.087095,77.204300 18.867399,55.077831 
	C18.820469,50.351357 20.139648,48.458946 25.017757,48.658760 
	C32.825176,48.978569 40.658627,48.636200 48.469330,48.909435 
	C57.380348,49.221169 62.337986,54.274254 63.019772,64.069725 
	C63.070473,74.283707 63.120083,83.631897 63.169693,92.980087 
M34.779545,120.431465 
	C34.779545,115.022766 34.779545,109.614067 34.779545,103.992294 
	C39.627434,103.992294 43.776043,104.086792 47.918846,103.971848 
	C55.623684,103.758080 60.748650,98.905769 60.938606,91.217796 
	C61.164791,82.063637 61.126289,72.896805 60.941383,63.740742 
	C60.813873,57.426815 57.112316,51.890770 51.423779,51.490948 
	C41.407837,50.786961 31.306772,51.294079 21.004929,51.294079 
	C21.004929,56.637562 21.004904,61.455223 21.004930,66.272888 
	C21.005045,86.257889 20.954575,106.243256 21.103348,126.227150 
	C21.114990,127.790939 22.222229,130.431839 23.321087,130.730698 
	C32.162556,133.135284 34.778915,130.983002 34.779533,121.906082 
	C34.779545,121.739540 34.779541,121.572998 34.779545,120.431465 
z"/>
<path fill="#081E4E" opacity="1.000000" stroke="none" 
	d="
M68.599792,62.360245 
	C68.877304,81.361343 68.929039,100.705688 68.918793,120.513077 
	C68.597298,120.379845 68.109543,119.782860 68.111382,119.187386 
	C68.169632,100.359329 68.275429,81.531425 68.599792,62.360245 
z"/>
<path fill="#071F48" opacity="1.000000" stroke="none" 
	d="
M63.397011,92.638054 
	C63.120083,83.631897 63.070473,74.283707 63.094528,64.472183 
	C63.320236,73.437912 63.472279,82.866966 63.397011,92.638054 
z"/>
<path fill="#092146" opacity="1.000000" stroke="none" 
	d="
M118.589645,63.357193 
	C118.863037,71.364014 118.912918,79.716057 118.892006,88.532516 
	C118.669525,80.565430 118.517830,72.133919 118.589645,63.357193 
z"/>
<path fill="#980504" opacity="1.000000" stroke="none" 
	d="
M160.977753,70.977760 
	C160.977768,73.104721 160.977768,74.753624 160.977768,77.373047 
	C157.031662,77.373047 153.288498,77.532898 149.578964,77.250664 
	C148.744324,77.187172 147.638412,75.688721 147.350937,74.657516 
	C146.962585,73.264435 147.259247,71.684212 147.236694,70.184662 
	C147.152878,64.610008 140.130142,60.615421 136.894852,64.850182 
	C134.296890,68.250740 135.071915,74.417267 134.935104,79.372559 
	C134.902008,80.571289 136.958633,82.399429 138.429092,82.966789 
	C144.112686,85.159698 149.877090,87.220779 155.751572,88.814018 
	C159.637146,89.867844 161.210938,91.716232 161.052551,95.796242 
	C160.781219,102.785110 161.066513,109.793556 160.952179,116.791084 
	C160.823776,124.649040 157.436554,129.413605 149.870575,130.352676 
	C143.698380,131.118729 137.248749,130.864960 131.068314,130.008453 
	C124.838097,129.145020 121.751022,125.391129 121.142990,119.307968 
	C120.730598,115.182098 120.868698,110.972778 121.148758,106.826996 
	C121.215096,105.844925 122.727943,104.795967 123.790161,104.110626 
	C124.379494,103.730392 125.412964,104.028954 126.246078,104.037582 
	C135.260941,104.130997 134.953217,102.844933 134.690521,112.149208 
	C134.561066,116.733749 136.844406,117.811378 140.830078,117.839760 
	C145.003906,117.869492 147.316666,116.788162 147.322754,111.944107 
	C147.337158,100.531570 147.513535,100.545586 136.696243,96.926155 
	C132.947021,95.671677 129.295761,94.050964 125.473732,93.108650 
	C121.819702,92.207756 120.839310,90.211029 120.948364,86.674965 
	C121.174286,79.349243 120.971703,72.011337 121.029556,64.679108 
	C121.097023,56.127647 126.108360,51.113873 134.622375,51.017704 
	C138.621490,50.972534 142.621658,50.994446 146.621185,51.016266 
	C155.985077,51.067352 160.684662,55.645081 160.967667,65.000542 
	C161.023071,66.832016 160.977005,68.666565 160.977753,70.977760 
z"/>
<path fill="#980404" opacity="1.000000" stroke="none" 
	d="
M84.790092,104.963028 
	C84.790718,107.121872 84.786469,108.787209 84.792816,110.452522 
	C84.818733,117.247490 88.751610,119.990814 95.063988,117.265602 
	C96.372856,116.700531 97.610100,114.708954 97.852760,113.208618 
	C98.298416,110.453125 97.979836,107.574028 97.979836,104.378044 
	C102.172478,104.378044 106.223198,104.378044 110.769623,104.378044 
	C110.769623,109.609566 111.270683,114.924667 110.630318,120.098511 
	C109.974976,125.393448 106.853340,129.627319 101.077553,130.015625 
	C94.359085,130.467331 87.503662,130.760925 80.860512,129.918259 
	C74.401955,129.098999 71.119019,124.644890 71.065483,118.098709 
	C70.917061,99.947853 70.914215,81.794182 71.062363,63.643322 
	C71.124268,56.059372 76.418747,51.158554 84.136726,51.024529 
	C88.631790,50.946472 93.129906,50.955235 97.625465,51.014610 
	C105.662636,51.120762 110.579308,55.880501 110.967247,63.920998 
	C111.071465,66.081009 110.987885,68.250099 110.989777,70.415024 
	C110.996407,77.993866 110.974571,77.639977 103.552368,78.095284 
	C98.546013,78.402390 97.601738,76.368500 97.949379,72.056572 
	C98.699074,62.757900 95.174095,63.726299 87.811638,64.308243 
	C86.674759,64.398109 84.965668,67.669189 84.924171,69.500854 
	C84.660225,81.152107 84.790024,92.812279 84.790092,104.963028 
z"/>
<path fill="#990504" opacity="1.000000" stroke="none" 
	d="
M34.779541,120.918961 
	C34.779541,121.572998 34.779545,121.739540 34.779533,121.906082 
	C34.778915,130.983002 32.162556,133.135284 23.321087,130.730698 
	C22.222229,130.431839 21.114990,127.790939 21.103348,126.227150 
	C20.954575,106.243256 21.005045,86.257889 21.004930,66.272888 
	C21.004904,61.455223 21.004929,56.637562 21.004929,51.294079 
	C31.306772,51.294079 41.407837,50.786961 51.423779,51.490948 
	C57.112316,51.890770 60.813873,57.426815 60.941383,63.740742 
	C61.126289,72.896805 61.164791,82.063637 60.938606,91.217796 
	C60.748650,98.905769 55.623684,103.758080 47.918846,103.971848 
	C43.776043,104.086792 39.627434,103.992294 34.779545,103.992294 
	C34.779545,109.614067 34.779545,115.022766 34.779541,120.918961 
M47.236919,72.609764 
	C47.222214,63.377911 46.229691,62.715954 35.055794,64.545998 
	C35.055794,73.227097 35.055794,81.917297 35.055794,90.963669 
	C37.449097,90.963669 39.582752,90.840569 41.697128,90.990097 
	C45.703175,91.273422 47.489742,89.629524 47.280998,85.515549 
	C47.079605,81.546402 47.236988,77.559052 47.236919,72.609764 
z"/>
<path fill="#F9F8F8" opacity="1.000000" stroke="none" 
	d="
M47.236839,73.094727 
	C47.236988,77.559052 47.079605,81.546402 47.280998,85.515549 
	C47.489742,89.629524 45.703175,91.273422 41.697128,90.990097 
	C39.582752,90.840569 37.449097,90.963669 35.055794,90.963669 
	C35.055794,81.917297 35.055794,73.227097 35.055794,64.545998 
	C46.229691,62.715954 47.222214,63.377911 47.236839,73.094727 
M40.483818,88.644272 
	C41.919823,88.515343 43.355827,88.386421 44.674919,88.267990 
	C44.674919,80.788071 44.674919,73.756874 44.674919,66.515671 
	C41.982281,66.515671 39.620274,66.515671 36.985550,66.515671 
	C36.985550,73.272423 36.887878,79.708046 37.101559,86.133308 
	C37.130253,86.996155 38.729553,87.806763 40.483818,88.644272 
z"/>
<path fill="#09265F" opacity="1.000000" stroke="none" 
	d="
M40.042686,88.642914 
	C38.729553,87.806763 37.130253,86.996155 37.101559,86.133308 
	C36.887878,79.708046 36.985550,73.272423 36.985550,66.515671 
	C39.620274,66.515671 41.982281,66.515671 44.674919,66.515671 
	C44.674919,73.756874 44.674919,80.788071 44.674919,88.267990 
	C43.355827,88.386421 41.919823,88.515343 40.042686,88.642914 
z"/>
</svg>